<svg id="Ebene_1" data-name="Ebene 1" xmlns="http://www.w3.org/2000/svg" viewBox="0 0 128 128"><defs><style>.cls-1{fill:#43a4ff;}.cls-2{fill:#f6f6f6;}</style></defs><title>ModuleSeoMetatags</title><rect class="cls-1" width="128" height="128"/><path class="cls-2" d="M96.89,42.69a11.89,11.89,0,0,1,3,7.32v51.43a4.27,4.27,0,0,1-4.29,4.29h-60a4.27,4.27,0,0,1-4.29-4.29V30a4.27,4.27,0,0,1,4.29-4.29h40a11.88,11.88,0,0,1,7.32,3ZM94.21,100V54.3H75.64A4.27,4.27,0,0,1,71.35,50V31.44H37.07V100ZM52.78,60a1.3,1.3,0,0,1,.94-.56,1.48,1.48,0,0,1,1.07.29l2.28,1.7a1.31,1.31,0,0,1,.56.94,1.48,1.48,0,0,1-.29,1.07L49.21,74.3l8.13,10.85a1.48,1.48,0,0,1,.29,1.07,1.31,1.31,0,0,1-.56.94l-2.28,1.7a1.48,1.48,0,0,1-1.07.29,1.3,1.3,0,0,1-.94-.56L42.69,75.15a1.31,1.31,0,0,1,0-1.7Zm8.13,34a1.31,1.31,0,0,1-.92-.58,1.44,1.44,0,0,1-.25-1.07l6.16-37.1a1.3,1.3,0,0,1,.58-.92,1.45,1.45,0,0,1,1.07-.25l2.81.45a1.31,1.31,0,0,1,.92.58,1.46,1.46,0,0,1,.25,1.07l-6.16,37.1a1.3,1.3,0,0,1-.58.92,1.45,1.45,0,0,1-1.07.25ZM88.59,73.45a1.31,1.31,0,0,1,0,1.7L78.5,88.58a1.31,1.31,0,0,1-.94.56,1.47,1.47,0,0,1-1.07-.29l-2.28-1.7a1.3,1.3,0,0,1-.56-.94,1.48,1.48,0,0,1,.29-1.07L82.07,74.3,73.94,63.45a1.48,1.48,0,0,1-.29-1.07,1.31,1.31,0,0,1,.56-.94l2.28-1.7a1.48,1.48,0,0,1,1.07-.29,1.31,1.31,0,0,1,.94.56ZM77.07,31.8V48.58H93.85a4.86,4.86,0,0,0-1-1.83l-14-14A4.88,4.88,0,0,0,77.07,31.8Z"/></svg>