<svg id="Ebene_1" data-name="Ebene 1" xmlns="http://www.w3.org/2000/svg" viewBox="0 0 128 128"><defs><style>.cls-1{fill:#43a4ff;}.cls-2{fill:#f6f6f6;}</style></defs><title>ModuleSitemap</title><rect class="cls-1" width="128" height="128"/><path class="cls-2" d="M108.24,81V96.68a4.67,4.67,0,0,1-4.69,4.7H87.9a4.67,4.67,0,0,1-4.7-4.7V81a4.67,4.67,0,0,1,4.7-4.69h4.69V66.94h-25v9.39h4.69A4.68,4.68,0,0,1,76.94,81V96.68a4.68,4.68,0,0,1-4.7,4.7H56.6a4.68,4.68,0,0,1-4.69-4.7V81a4.68,4.68,0,0,1,4.69-4.69h4.69V66.94h-25v9.39H41A4.67,4.67,0,0,1,45.65,81V96.68a4.67,4.67,0,0,1-4.69,4.7H25.3a4.67,4.67,0,0,1-4.69-4.7V81a4.67,4.67,0,0,1,4.69-4.69H30V66.94a6.35,6.35,0,0,1,6.26-6.26h25V51.3H56.6A4.68,4.68,0,0,1,51.9,46.6V31a4.68,4.68,0,0,1,4.69-4.69H72.25A4.68,4.68,0,0,1,76.94,31V46.6a4.68,4.68,0,0,1-4.7,4.69H67.55v9.39h25a6.35,6.35,0,0,1,6.26,6.26v9.39h4.69A4.67,4.67,0,0,1,108.24,81Z"/></svg>