<svg id="Ebene_1" data-name="Ebene 1" xmlns="http://www.w3.org/2000/svg" viewBox="0 0 128 128"><defs><style>.cls-1{fill:#43a4ff;}.cls-2{fill:#fff;}.cls-3{fill:#f6f6f6;}</style></defs><title>ModuleControlCenter</title><rect class="cls-1" width="128" height="128"/><path class="cls-2" d="M119.15,29v5.29a.92.92,0,0,1-.19.55.72.72,0,0,1-.48.31l-4.41.67a15.19,15.19,0,0,1-.93,2.17q.83,1.19,2.55,3.29a.93.93,0,0,1,.24.6.8.8,0,0,1-.21.55A24.16,24.16,0,0,1,113.36,45q-1.72,1.69-2.24,1.69a1.17,1.17,0,0,1-.62-.21l-3.29-2.57a13.61,13.61,0,0,1-2.17.91,39.09,39.09,0,0,1-.69,4.43.8.8,0,0,1-.86.67H98.2a.9.9,0,0,1-.58-.2.7.7,0,0,1-.27-.51l-.67-4.39A14.66,14.66,0,0,1,94.53,44l-3.36,2.55a.86.86,0,0,1-.6.21.82.82,0,0,1-.6-.26,31.39,31.39,0,0,1-3.93-4,.93.93,0,0,1-.17-.55.92.92,0,0,1,.19-.55q.36-.5,1.22-1.58t1.29-1.68a11.77,11.77,0,0,1-1-2.36l-4.36-.64a.75.75,0,0,1-.5-.3.9.9,0,0,1-.19-.56V29a.92.92,0,0,1,.19-.55.72.72,0,0,1,.45-.31l4.43-.67a11.79,11.79,0,0,1,.93-2.19q-1-1.36-2.55-3.29a.89.89,0,0,1-.24-.57,1,1,0,0,1,.21-.55,23.66,23.66,0,0,1,2.35-2.56q1.73-1.7,2.25-1.7a1,1,0,0,1,.62.24l3.29,2.55a13.65,13.65,0,0,1,2.17-.91A38.78,38.78,0,0,1,97.34,14a.8.8,0,0,1,.86-.67h5.29a.9.9,0,0,1,.58.2.71.71,0,0,1,.27.51l.67,4.39a14.83,14.83,0,0,1,2.15.88l3.38-2.55a.77.77,0,0,1,.57-.21.92.92,0,0,1,.6.24,32.63,32.63,0,0,1,3.93,4.05.77.77,0,0,1,.17.52.92.92,0,0,1-.19.55q-.36.5-1.21,1.58t-1.29,1.68a14.35,14.35,0,0,1,1,2.34l4.36.67a.75.75,0,0,1,.5.3A.9.9,0,0,1,119.15,29Zm-14,6.91a6.1,6.1,0,0,0-4.31-10.42,6.1,6.1,0,0,0-6.1,6.1A6.1,6.1,0,0,0,105.16,36Z"/><path class="cls-3" d="M107.24,84V99.68a4.67,4.67,0,0,1-4.69,4.7H86.9a4.67,4.67,0,0,1-4.7-4.7V84a4.67,4.67,0,0,1,4.7-4.69h4.69V69.94h-25v9.39h4.69A4.68,4.68,0,0,1,75.94,84V99.68a4.68,4.68,0,0,1-4.7,4.7H55.6a4.68,4.68,0,0,1-4.69-4.7V84a4.68,4.68,0,0,1,4.69-4.69h4.69V69.94h-25v9.39H40A4.67,4.67,0,0,1,44.65,84V99.68a4.67,4.67,0,0,1-4.69,4.7H24.3a4.67,4.67,0,0,1-4.69-4.7V84a4.67,4.67,0,0,1,4.69-4.69H29V69.94a6.35,6.35,0,0,1,6.26-6.26h25V54.3H55.6A4.68,4.68,0,0,1,50.9,49.6V34a4.68,4.68,0,0,1,4.69-4.69H71.25A4.68,4.68,0,0,1,75.94,34V49.6a4.68,4.68,0,0,1-4.7,4.69H66.55v9.39h25a6.35,6.35,0,0,1,6.26,6.26v9.39h4.69A4.67,4.67,0,0,1,107.24,84Z"/></svg>